<svg version="1.2" xmlns="http://www.w3.org/2000/svg" viewBox="0 0 44 44" width="44" height="44">
	<title>download_icon</title>
	<style>
		.s0 { fill: #b2d640 } 
	</style>
	<path fill-rule="evenodd" class="s0" d="m44 22c0 10.4 0 15.6-3.2 18.8-3.2 3.2-8.4 3.2-18.8 3.2-10.4 0-15.6 0-18.8-3.2-3.2-3.2-3.2-8.4-3.2-18.8 0-10.4 0-15.6 3.2-18.8 3.2-3.2 8.4-3.2 18.8-3.2 10.4 0 15.6 0 18.8 3.2 3.2 3.2 3.2 8.4 3.2 18.8zm-22-12.7c-0.9 0-1.6 0.8-1.6 1.7v11.4l-3.8-3.8c-0.7-0.6-1.7-0.6-2.4 0-0.6 0.7-0.6 1.7 0 2.4l6.6 6.6c0.3 0.3 0.8 0.4 1.2 0.4 0.4 0 0.9-0.1 1.2-0.4l6.6-6.6c0.6-0.7 0.6-1.7 0-2.4-0.7-0.6-1.7-0.6-2.4 0l-3.8 3.8v-11.4c0-0.9-0.7-1.7-1.6-1.7zm-8.8 22c-0.9 0-1.6 0.8-1.6 1.7 0 0.9 0.7 1.6 1.6 1.6h17.6c0.9 0 1.7-0.7 1.7-1.6 0-0.9-0.8-1.7-1.7-1.7z"/>
</svg>