<?xml version="1.0" encoding="UTF-8"?>
<svg version="1.1" xmlns="http://www.w3.org/2000/svg" width="477" height="512">
<path d="M0 0 C22.03852652 18.81159856 36.46579334 41.06373377 44.3515625 68.91015625 C44.69316406 70.08835937 45.03476562 71.2665625 45.38671875 72.48046875 C51.59092755 98.74014322 48.11935597 128.40755389 37.3515625 152.91015625 C36.92665527 153.89145508 36.92665527 153.89145508 36.49316406 154.89257812 C26.55015943 177.41540631 9.36838282 197.08371443 -11.6484375 209.91015625 C-12.7209375 210.59335937 -13.7934375 211.2765625 -14.8984375 211.98046875 C-42.75922794 228.94201478 -78.25061189 233.92648545 -110.03027344 226.74707031 C-117.81941729 224.77736357 -125.2980262 222.14033195 -132.6484375 218.91015625 C-133.30263672 218.62688477 -133.95683594 218.34361328 -134.63085938 218.05175781 C-164.72593234 204.76588414 -188.43262339 179.18859339 -200.51953125 148.71386719 C-202.47890077 143.51521742 -204.1350825 138.25415274 -205.6484375 132.91015625 C-205.99003906 131.73195313 -206.33164063 130.55375 -206.68359375 129.33984375 C-214.21743998 97.45240157 -207.83557456 61.43465161 -191.0078125 33.60546875 C-172.71931393 4.51560818 -145.47270495 -14.79440926 -112.6484375 -24.08984375 C-111.47023438 -24.43144531 -110.29203125 -24.77304688 -109.078125 -25.125 C-71.91216204 -33.90596927 -29.43835184 -24.14652242 0 0 Z M-137.6484375 37.91015625 C-138.41027344 38.57660156 -139.17210937 39.24304688 -139.95703125 39.9296875 C-154.23015301 53.26281164 -164.79679311 74.32233535 -165.6484375 93.91015625 C-165.7 94.91046875 -165.7515625 95.91078125 -165.8046875 96.94140625 C-166.41856559 119.6548955 -158.67872445 140.82397053 -143.6484375 157.91015625 C-142.64876953 159.05291016 -142.64876953 159.05291016 -141.62890625 160.21875 C-128.29578211 174.49187176 -107.2362584 185.05851186 -87.6484375 185.91015625 C-86.648125 185.96171875 -85.6478125 186.01328125 -84.6171875 186.06640625 C-61.90369825 186.68028434 -40.73462322 178.9404432 -23.6484375 163.91015625 C-22.88660156 163.24371094 -22.12476563 162.57726562 -21.33984375 161.890625 C-7.06672199 148.55750086 3.49991811 127.49797715 4.3515625 107.91015625 C4.403125 106.90984375 4.4546875 105.90953125 4.5078125 104.87890625 C5.12169059 82.165417 -2.61815055 60.99634197 -17.6484375 43.91015625 C-18.31488281 43.14832031 -18.98132813 42.38648438 -19.66796875 41.6015625 C-33.00109289 27.32844074 -54.0606166 16.76180064 -73.6484375 15.91015625 C-74.64875 15.85859375 -75.6490625 15.80703125 -76.6796875 15.75390625 C-99.39317675 15.14002816 -120.56225178 22.8798693 -137.6484375 37.91015625 Z " fill="#B5E03A" transform="translate(315.6484375,155.08984375)"/>
<path d="M0 0 C14.66593153 10.19568513 25.60840641 23.74932626 29.74780273 41.46484375 C31.86603529 54.29763126 31.44584138 68.79991362 26.125 80.75 C25.76277344 81.62269531 25.40054688 82.49539063 25.02734375 83.39453125 C17.33536706 100.36902897 3.07751411 111.05081733 -13.734375 117.91796875 C-30.02500275 122.93228047 -49.3872321 120.84818754 -64.375 113.25 C-80.79373216 104.34772371 -91.48385123 89.95575147 -96.98828125 72.1484375 C-100.09059644 59.05712927 -99.35177869 43.05030624 -93.875 30.75 C-93.51277344 29.87730469 -93.15054688 29.00460938 -92.77734375 28.10546875 C-85.8549626 12.82929883 -73.23462165 1.78063924 -57.87109375 -4.47265625 C-38.93392049 -11.50790437 -17.48941603 -10.43527048 0 0 Z M-49.875 41.75 C-53.75788308 47.14289317 -55.1468631 52.07889787 -54.875 58.75 C-53.4666013 65.37640043 -50.24966481 70.04024133 -44.75 74 C-39.73318126 76.63194987 -34.18783433 77.45412158 -28.6328125 76.2734375 C-22.37683035 74.12515684 -17.80499643 70.78034013 -14.66796875 64.80078125 C-12.58252157 59.40738338 -12.17731932 53.92731187 -14.0625 48.4375 C-16.78784197 42.36353158 -20.57057733 38.1877101 -26.875 35.75 C-35.71395647 33.63038075 -43.3436893 35.2186893 -49.875 41.75 Z " fill="#B5E03A" transform="translate(268.875,200.25)"/>
<path d="M0 0 C4.67844114 1.47235857 7.85486202 4.22056119 11.4375 7.4375 C16.98882425 12.33620988 22.67604498 16.96174815 28.64428711 21.34545898 C32.77452133 24.47674172 32.77452133 24.47674172 33.83447266 26.93652344 C34 29 34 29 32.95532227 30.70410156 C32.41447998 31.2606543 31.8736377 31.81720703 31.31640625 32.390625 C30.72214844 33.01404785 30.12789063 33.6374707 29.515625 34.27978516 C28.87109375 34.92995605 28.2265625 35.58012695 27.5625 36.25 C26.91667969 36.91950684 26.27085937 37.58901367 25.60546875 38.27880859 C23.7486035 40.19766257 21.87623288 42.1001105 20 44 C19.17371094 44.85335937 18.34742188 45.70671875 17.49609375 46.5859375 C15.69443921 48.42637521 13.86621414 50.22535244 12 52 C11.44828125 52.53496094 10.8965625 53.06992187 10.328125 53.62109375 C6.60307149 57.02343223 6.60307149 57.02343223 4.08984375 56.92578125 C1.11789929 55.60923763 -0.1989414 53.68223564 -2.1875 51.125 C-2.97253906 50.12984375 -3.75757813 49.1346875 -4.56640625 48.109375 C-5.36949219 47.08328125 -6.17257812 46.0571875 -7 45 C-8.53727295 43.121396 -10.07881722 41.24627762 -11.625 39.375 C-15.4977267 34.64469234 -19.27674425 29.84861279 -23 25 C-21.44118929 20.98629578 -18.60649352 18.62797716 -15.4375 15.875 C-9.86162767 10.91369092 -4.86794403 5.66697524 0 0 Z " fill="#B5E03A" transform="translate(366,364)"/>
<path d="M0 0 C4.48178274 0.86204337 6.98047553 3.42331951 10.1875 6.5 C10.76048828 7.04027832 11.33347656 7.58055664 11.92382812 8.13720703 C13.62529231 9.74864413 15.31492312 11.37144882 17 13 C17.88300781 13.85335937 18.76601563 14.70671875 19.67578125 15.5859375 C21.81698471 17.69475301 23.92078878 19.83020073 26 22 C26.55945313 22.57621094 27.11890625 23.15242188 27.6953125 23.74609375 C31.0248355 27.39401376 31.0248355 27.39401376 30.921875 29.90625 C29.61076062 32.88403521 27.68454517 34.19714547 25.125 36.1875 C24.12984375 36.97253906 23.1346875 37.75757813 22.109375 38.56640625 C21.08328125 39.36949219 20.0571875 40.17257813 19 41 C17.121396 42.53727295 15.24627762 44.07881722 13.375 45.625 C8.64469234 49.4977267 3.84861279 53.27674425 -1 57 C-5.01370422 55.44118929 -7.37202284 52.60649352 -10.125 49.4375 C-15.08630908 43.86162767 -20.33302476 38.86794403 -26 34 C-24.48888205 29.16804201 -21.74067622 26.07476206 -18.4375 22.375 C-17.35317403 21.13628488 -16.2698516 19.89669063 -15.1875 18.65625 C-14.64996094 18.04265625 -14.11242187 17.4290625 -13.55859375 16.796875 C-8.84496976 11.36262178 -4.27793 5.78386798 0 0 Z " fill="#B5E03A" transform="translate(369,91)"/>
<path d="M0 0 C4.01370422 1.55881071 6.37202284 4.39350648 9.125 7.5625 C14.08630908 13.13837233 19.33302476 18.13205597 25 23 C23.48888205 27.83195799 20.74067622 30.92523794 17.4375 34.625 C16.35317403 35.86371512 15.2698516 37.10330937 14.1875 38.34375 C13.64996094 38.95734375 13.11242187 39.5709375 12.55859375 40.203125 C7.84496976 45.63737822 3.27793 51.21613202 -1 57 C-5.48178274 56.13795663 -7.98047553 53.57668049 -11.1875 50.5 C-11.76048828 49.95972168 -12.33347656 49.41944336 -12.92382812 48.86279297 C-14.62529231 47.25135587 -16.31492312 45.62855118 -18 44 C-18.88300781 43.14664063 -19.76601562 42.29328125 -20.67578125 41.4140625 C-22.81698471 39.30524699 -24.92078878 37.16979927 -27 35 C-27.83917969 34.13568359 -27.83917969 34.13568359 -28.6953125 33.25390625 C-32.0248355 29.60598624 -32.0248355 29.60598624 -31.921875 27.09375 C-30.61076062 24.11596479 -28.68454517 22.80285453 -26.125 20.8125 C-25.12984375 20.02746094 -24.1346875 19.24242187 -23.109375 18.43359375 C-22.08328125 17.63050781 -21.0571875 16.82742188 -20 16 C-18.121396 14.46272705 -16.24627762 12.92118278 -14.375 11.375 C-9.64469234 7.5022733 -4.84861279 3.72325575 0 0 Z " fill="#B5E03A" transform="translate(102,364)"/>
<path d="M0 0 C2.97778521 1.31111438 4.29089547 3.23732983 6.28125 5.796875 C7.06628906 6.79203125 7.85132813 7.7871875 8.66015625 8.8125 C9.46324219 9.83859375 10.26632813 10.8646875 11.09375 11.921875 C12.63102295 13.800479 14.17256722 15.67559738 15.71875 17.546875 C19.5914767 22.27718266 23.37049425 27.07326221 27.09375 31.921875 C25.53493929 35.93557922 22.70024352 38.29389784 19.53125 41.046875 C13.95537767 46.00818408 8.96169403 51.25489976 4.09375 56.921875 C-0.73820799 55.41075705 -3.83148794 52.66255122 -7.53125 49.359375 C-8.76996512 48.27504903 -10.00955937 47.1917266 -11.25 46.109375 C-11.86359375 45.57183594 -12.4771875 45.03429687 -13.109375 44.48046875 C-18.54362822 39.76684476 -24.12238202 35.199805 -29.90625 30.921875 C-29.04420663 26.44009226 -26.48293049 23.94139947 -23.40625 20.734375 C-22.86597168 20.16138672 -22.32569336 19.58839844 -21.76904297 18.99804688 C-20.15760587 17.29658269 -18.53480118 15.60695188 -16.90625 13.921875 C-16.05289063 13.03886719 -15.19953125 12.15585938 -14.3203125 11.24609375 C-12.21149699 9.10489029 -10.07604927 7.00108622 -7.90625 4.921875 C-7.04193359 4.08269531 -7.04193359 4.08269531 -6.16015625 3.2265625 C-2.51223624 -0.1029605 -2.51223624 -0.1029605 0 0 Z " fill="#B5E03A" transform="translate(99.90625,91.078125)"/>
<path d="M0 0 C1.33105469 2.01855469 1.33105469 2.01855469 2.671875 4.671875 C3.41679199 6.12557495 3.41679199 6.12557495 4.17675781 7.60864258 C4.69592773 8.64529053 5.21509766 9.68193848 5.75 10.75 C6.82216204 12.85324943 7.89507503 14.95611624 8.96875 17.05859375 C9.48695313 18.07937012 10.00515625 19.10014648 10.5390625 20.15185547 C12.89459446 24.74404061 15.38679114 29.2566688 17.890625 33.76953125 C19 36 19 36 19 38 C-13.2421365 54 -13.2421365 54 -21 54 C-22.73840845 48.3616619 -24.46542021 42.72000839 -26.18188477 37.07495117 C-26.76761605 35.15439563 -27.35647038 33.2347897 -27.94848633 31.31616211 C-28.79807934 28.56086004 -29.63644421 25.80235685 -30.47265625 23.04296875 C-30.74030289 22.18350143 -31.00794952 21.32403412 -31.28370667 20.43852234 C-31.6441935 19.23761711 -31.6441935 19.23761711 -32.01196289 18.01245117 C-32.22736221 17.3085173 -32.44276154 16.60458344 -32.66468811 15.87931824 C-33 14 -33 14 -32 11 C-30.30102539 10.09619141 -30.30102539 10.09619141 -28.09765625 9.3515625 C-26.89206055 8.93003906 -26.89206055 8.93003906 -25.66210938 8.5 C-24.80423828 8.21125 -23.94636719 7.9225 -23.0625 7.625 C-16.70414327 5.40597618 -10.68020021 3.10297155 -4.8125 -0.25 C-3 -1 -3 -1 0 0 Z " fill="#B5E03A" transform="translate(317,407)"/>
<path d="M0 0 C4.74592118 1.48862745 9.21898635 3.34765349 13.75 5.375 C19.78515731 8.04809032 25.84945009 10.60200797 32 13 C29.77967622 22.35778786 27.10699427 31.55242552 24.3125 40.75 C23.89231743 42.14054625 23.47239404 43.53117085 23.05273438 44.921875 C22.03813216 48.28215532 21.02006306 51.64137279 20 55 C12.88398252 53.2123933 6.16458624 51.0497592 -0.5625 48.125 C-1.78803589 47.60099609 -1.78803589 47.60099609 -3.03833008 47.06640625 C-8.79664638 44.5822694 -14.46748258 41.95826124 -20 39 C-18.54322975 34.13862199 -16.51300608 29.89311797 -14.12109375 25.44921875 C-13.74896255 24.74980667 -13.37683136 24.05039459 -12.99342346 23.32978821 C-12.21142062 21.86216742 -11.42719851 20.39572718 -10.64086914 18.93041992 C-9.43325332 16.67958475 -8.23268328 14.42510133 -7.03320312 12.16992188 C-6.27123915 10.74197088 -5.5088833 9.3142289 -4.74609375 7.88671875 C-4.3856749 7.21074142 -4.02525604 6.5347641 -3.65391541 5.83830261 C-1.11670274 1.11670274 -1.11670274 1.11670274 0 0 Z " fill="#B5E03A" transform="translate(154,406)"/>
<path d="M0 0 C0.90380859 1.69897461 0.90380859 1.69897461 1.6484375 3.90234375 C1.92945313 4.70607422 2.21046875 5.50980469 2.5 6.33789062 C2.78875 7.19576172 3.0775 8.05363281 3.375 8.9375 C5.59402382 15.29585673 7.89702845 21.31979979 11.25 27.1875 C12 29 12 29 11 32 C8.98144531 33.33105469 8.98144531 33.33105469 6.328125 34.671875 C4.87442505 35.41679199 4.87442505 35.41679199 3.39135742 36.17675781 C2.35470947 36.69592773 1.31806152 37.21509766 0.25 37.75 C-1.85324943 38.82216204 -3.95611624 39.89507503 -6.05859375 40.96875 C-7.5897583 41.74605469 -7.5897583 41.74605469 -9.15185547 42.5390625 C-13.74404061 44.89459446 -18.2566688 47.38679114 -22.76953125 49.890625 C-25 51 -25 51 -27 51 C-43 18.7578635 -43 18.7578635 -43 11 C-37.3616619 9.26159155 -31.72000839 7.53457979 -26.07495117 5.81811523 C-24.15439563 5.23238395 -22.2347897 4.64352962 -20.31616211 4.05151367 C-17.56086004 3.20192066 -14.80235685 2.36355579 -12.04296875 1.52734375 C-11.18350143 1.25969711 -10.32403412 0.99205048 -9.43852234 0.71629333 C-8.23761711 0.3558065 -8.23761711 0.3558065 -7.01245117 -0.01196289 C-6.3085173 -0.22736221 -5.60458344 -0.44276154 -4.87931824 -0.66468811 C-3 -1 -3 -1 0 0 Z " fill="#B5E03A" transform="translate(73,306)"/>
<path d="M0 0 C9.40516463 1.70762388 18.60957245 4.91036865 27.75 7.6875 C29.14054625 8.10768257 30.53117085 8.52760596 31.921875 8.94726562 C35.28215532 9.96186784 38.64137279 10.97993694 42 12 C40.2123933 19.11601748 38.0497592 25.83541376 35.125 32.5625 C34.60099609 33.78803589 34.60099609 33.78803589 34.06640625 35.03833008 C31.5822694 40.79664638 28.95826124 46.46748258 26 52 C21.16314351 50.54217005 16.89265749 48.5412019 12.44921875 46.19140625 C11.40010063 45.64032448 11.40010063 45.64032448 10.32978821 45.07810974 C8.86204267 44.30475961 7.39560389 43.52892477 5.93041992 42.75073242 C3.68224368 41.55971536 1.42640964 40.38416183 -0.83007812 39.20898438 C-2.25830524 38.45405647 -3.68605706 37.69822853 -5.11328125 36.94140625 C-5.78925858 36.59130997 -6.4652359 36.24121368 -7.16169739 35.88050842 C-11.88559713 33.3432086 -11.88559713 33.3432086 -13 30 C-11.85330187 27.27696232 -10.64486887 24.69221318 -9.3125 22.0625 C-6.25442414 15.83601561 -3.70523537 9.77153915 -1.69140625 3.125 C-1 1 -1 1 0 0 Z " fill="#B5E03A" transform="translate(398,305)"/>
<path d="M0 0 C16 32.2421365 16 32.2421365 16 40 C10.3616619 41.73840845 4.72000839 43.46542021 -0.92504883 45.18188477 C-2.84560437 45.76761605 -4.7652103 46.35647038 -6.68383789 46.94848633 C-9.43913996 47.79807934 -12.19764315 48.63644421 -14.95703125 49.47265625 C-15.81649857 49.74030289 -16.67596588 50.00794952 -17.56147766 50.28370667 C-18.36208115 50.52403122 -19.16268463 50.76435577 -19.98754883 51.01196289 C-20.6914827 51.22736221 -21.39541656 51.44276154 -22.12068176 51.66468811 C-24 52 -24 52 -27 51 C-27.90380859 49.30102539 -27.90380859 49.30102539 -28.6484375 47.09765625 C-28.92945313 46.29392578 -29.21046875 45.49019531 -29.5 44.66210938 C-29.78875 43.80423828 -30.0775 42.94636719 -30.375 42.0625 C-32.59402382 35.70414327 -34.89702845 29.68020021 -38.25 23.8125 C-39 22 -39 22 -38 19 C-35.76611328 17.5612793 -35.76611328 17.5612793 -32.8203125 16.07421875 C-31.74523437 15.52443359 -30.67015625 14.97464844 -29.5625 14.40820312 C-28.428125 13.84037109 -27.29375 13.27253906 -26.125 12.6875 C-23.91872089 11.5674889 -21.71298756 10.44640203 -19.5078125 9.32421875 C-18.42532227 8.77685059 -17.34283203 8.22948242 -16.22753906 7.66552734 C-12.14683423 5.55973549 -8.13840985 3.33516767 -4.14013672 1.07739258 C-2 0 -2 0 0 0 Z " fill="#B5E03A" transform="translate(424,155)"/>
<path d="M0 0 C4.83685649 1.45782995 9.10734251 3.4587981 13.55078125 5.80859375 C14.25019333 6.1759816 14.94960541 6.54336945 15.67021179 6.92189026 C17.13795733 7.69524039 18.60439611 8.47107523 20.06958008 9.24926758 C22.31775632 10.44028464 24.57359036 11.61583817 26.83007812 12.79101562 C28.25830524 13.54594353 29.68605706 14.30177147 31.11328125 15.05859375 C32.12724724 15.58373817 32.12724724 15.58373817 33.16169739 16.11949158 C37.88559713 18.6567914 37.88559713 18.6567914 39 22 C37.85328359 24.7230811 36.64534918 27.307972 35.3125 29.9375 C32.25550919 36.13751946 29.74773823 42.19348616 27.88671875 48.875 C27.59410156 49.57625 27.30148438 50.2775 27 51 C23.75166451 52.0827785 23.11113382 51.96776019 19.98754883 51.01196289 C19.18694534 50.77163834 18.38634186 50.53131378 17.56147766 50.28370667 C16.70201035 50.01606003 15.84254303 49.74841339 14.95703125 49.47265625 C14.0734343 49.20488876 13.18983734 48.93712128 12.27946472 48.66123962 C9.45458828 47.8031313 6.63358571 46.93298041 3.8125 46.0625 C1.89933118 45.47902152 -0.0140776 44.89632925 -1.92773438 44.31445312 C-6.62132395 42.88541403 -11.31147446 41.44556291 -16 40 C-14.2123933 32.88398252 -12.0497592 26.16458624 -9.125 19.4375 C-8.77566406 18.62047607 -8.42632812 17.80345215 -8.06640625 16.96166992 C-5.5822694 11.20335362 -2.95826124 5.53251742 0 0 Z " fill="#B5E03A" transform="translate(46,155)"/>
<path d="M0 0 C7.11601748 1.7876067 13.83541376 3.9502408 20.5625 6.875 C21.78803589 7.39900391 21.78803589 7.39900391 23.03833008 7.93359375 C28.79664638 10.4177306 34.46748258 13.04173876 40 16 C38.54217005 20.83685649 36.5412019 25.10734251 34.19140625 29.55078125 C33.64032448 30.59989937 33.64032448 30.59989937 33.07810974 31.67021179 C32.30475961 33.13795733 31.52892477 34.60439611 30.75073242 36.06958008 C29.55971536 38.31775632 28.38416183 40.57359036 27.20898438 42.83007812 C26.45405647 44.25830524 25.69822853 45.68605706 24.94140625 47.11328125 C24.59130997 47.78925858 24.24121368 48.4652359 23.88050842 49.16169739 C21.3432086 53.88559713 21.3432086 53.88559713 18 55 C15.2769189 53.85328359 12.692028 52.64534918 10.0625 51.3125 C3.86248054 48.25550919 -2.19348616 45.74773823 -8.875 43.88671875 C-9.57625 43.59410156 -10.2775 43.30148438 -11 43 C-12.0827785 39.75166451 -11.96776019 39.11113382 -11.01196289 35.98754883 C-10.77163834 35.18694534 -10.53131378 34.38634186 -10.28370667 33.56147766 C-10.01606003 32.70201035 -9.74841339 31.84254303 -9.47265625 30.95703125 C-9.20488876 30.0734343 -8.93712128 29.18983734 -8.66123962 28.27946472 C-7.8031313 25.45458828 -6.93298041 22.63358571 -6.0625 19.8125 C-5.47902152 17.89933118 -4.89632925 15.9859224 -4.31445312 14.07226562 C-2.88541403 9.37867605 -1.44556291 4.68852554 0 0 Z " fill="#B5E03A" transform="translate(296,51)"/>
<path d="M0 0 C1.73840845 5.6383381 3.46542021 11.27999161 5.18188477 16.92504883 C5.76761605 18.84560437 6.35647038 20.7652103 6.94848633 22.68383789 C7.79807934 25.43913996 8.63644421 28.19764315 9.47265625 30.95703125 C9.74030289 31.81649857 10.00794952 32.67596588 10.28370667 33.56147766 C10.52403122 34.36208115 10.76435577 35.16268463 11.01196289 35.98754883 C11.22736221 36.6914827 11.44276154 37.39541656 11.66468811 38.12068176 C12 40 12 40 11 43 C9.30102539 43.90380859 9.30102539 43.90380859 7.09765625 44.6484375 C6.29392578 44.92945313 5.49019531 45.21046875 4.66210938 45.5 C3.80423828 45.78875 2.94636719 46.0775 2.0625 46.375 C-4.29585673 48.59402382 -10.31979979 50.89702845 -16.1875 54.25 C-18 55 -18 55 -21 54 C-22.4387207 51.76611328 -22.4387207 51.76611328 -23.92578125 48.8203125 C-24.47556641 47.74523437 -25.02535156 46.67015625 -25.59179688 45.5625 C-26.44354492 43.8609375 -26.44354492 43.8609375 -27.3125 42.125 C-28.4325111 39.91872089 -29.55359797 37.71298756 -30.67578125 35.5078125 C-31.22314941 34.42532227 -31.77051758 33.34283203 -32.33447266 32.22753906 C-34.44026451 28.14683423 -36.66483233 24.13840985 -38.92260742 20.14013672 C-40 18 -40 18 -40 16 C-7.7578635 0 -7.7578635 0 0 0 Z " fill="#B5E03A" transform="translate(174,51)"/>
<path d="M0 0 C8.00127481 -0.24850171 15.88118652 0.42767931 23.83422852 1.22680664 C25.95727184 1.43948063 28.08105448 1.64307844 30.20507812 1.84570312 C40.58716526 2.86238842 40.58716526 2.86238842 44 4 C44 15.22 44 26.44 44 38 C36.07229139 39.21964748 28.27739686 40.38605139 20.3125 41.125 C19.45333984 41.21136719 18.59417969 41.29773438 17.70898438 41.38671875 C11.79034616 41.94785375 5.94341397 42.1001833 0 42 C-0.92319118 34.96616246 -1.15165387 28.08993065 -1.125 21 C-1.12886719 19.97132813 -1.13273437 18.94265625 -1.13671875 17.8828125 C-1.12902997 11.83943361 -0.78650859 5.99244638 0 0 Z " fill="#B5E03A" transform="translate(22,235)"/>
<path d="M0 0 C11.22 0 22.44 0 34 0 C35.21964748 7.92770861 36.38605139 15.72260314 37.125 23.6875 C37.21136719 24.54666016 37.29773438 25.40582031 37.38671875 26.29101562 C37.94785375 32.20965384 38.1001833 38.05658603 38 44 C30.96616246 44.92319118 24.08993065 45.15165387 17 45.125 C15.45699219 45.13080078 15.45699219 45.13080078 13.8828125 45.13671875 C7.83943361 45.12902997 1.99244638 44.78650859 -4 44 C-4.24850171 35.99872519 -3.57232069 28.11881348 -2.77319336 20.16577148 C-2.56051937 18.04272816 -2.35692156 15.91894552 -2.15429688 13.79492188 C-1.13761158 3.41283474 -1.13761158 3.41283474 0 0 Z " fill="#B5E03A" transform="translate(218,425)"/>
<path d="M0 0 C1.02867187 -0.00386719 2.05734375 -0.00773437 3.1171875 -0.01171875 C9.16056639 -0.00402997 15.00755362 0.33849141 21 1.125 C21.24850171 9.12627481 20.57232069 17.00618652 19.77319336 24.95922852 C19.56051937 27.08227184 19.35692156 29.20605448 19.15429688 31.33007812 C18.13761158 41.71216526 18.13761158 41.71216526 17 45.125 C5.78 45.125 -5.44 45.125 -17 45.125 C-18.21964748 37.19729139 -19.38605139 29.40239686 -20.125 21.4375 C-20.21136719 20.57833984 -20.29773438 19.71917969 -20.38671875 18.83398438 C-20.94785375 12.91534616 -21.1001833 7.06841397 -21 1.125 C-13.96616246 0.20180882 -7.08993065 -0.02665387 0 0 Z " fill="#B5E03A" transform="translate(235,41.875)"/>
<path d="M0 0 C0.92319118 7.03383754 1.15165387 13.91006935 1.125 21 C1.13080078 22.54300781 1.13080078 22.54300781 1.13671875 24.1171875 C1.12902997 30.16056639 0.78650859 36.00755362 0 42 C-8.00127481 42.24850171 -15.88118652 41.57232069 -23.83422852 40.77319336 C-25.95727184 40.56051937 -28.08105448 40.35692156 -30.20507812 40.15429688 C-40.58716526 39.13761158 -40.58716526 39.13761158 -44 38 C-44 26.78 -44 15.56 -44 4 C-38.87941748 2.29313916 -33.4330876 2.15364433 -28.07836914 1.64282227 C-25.96891439 1.44051283 -23.86046679 1.22944308 -21.75195312 1.01757812 C-14.48637057 0.30543046 -7.30394748 -0.22684428 0 0 Z " fill="#B5E03A" transform="translate(448,235)"/>
</svg>
