<svg version="1.2" xmlns="http://www.w3.org/2000/svg" viewBox="0 0 44 44" width="44" height="44">
	<title>remove_bg_icon</title>
	<style>
		.s0 { fill: #b2d640 } 
		.s1 { fill: #ffffff } 
	</style>
	<path fill-rule="evenodd" class="s0" d="m11 0h22c6.1 0 11 4.9 11 11v22c0 6.1-4.9 11-11 11h-22c-6.1 0-11-4.9-11-11v-22c0-6.1 4.9-11 11-11z"/>
	<path fill-rule="evenodd" class="s1" d="m13.8 9h17.4c1 0 1.8 0.8 1.8 1.8v-0.1c0 1-0.8 1.8-1.7 1.8h-17.6c-0.9 0-1.7-0.8-1.7-1.8 0-0.9 0.8-1.7 1.8-1.7z"/>
	<path fill-rule="evenodd" class="s1" d="m18.1 17.2l10.7 11.5c0.6 0.6 0.6 1.6 0 2.2-0.7 0.6-1.7 0.6-2.3-0.1l-10.7-11.5c-0.6-0.6-0.5-1.6 0.1-2.2 0.6-0.6 1.6-0.6 2.2 0.1z"/>
	<path fill-rule="evenodd" class="s1" d="m15.2 28.8l11.5-10.7c0.6-0.6 1.6-0.6 2.2 0.1 0.6 0.6 0.6 1.6-0.1 2.2l-11.5 10.7c-0.6 0.6-1.6 0.6-2.2-0.1-0.6-0.6-0.6-1.6 0.1-2.2z"/>
</svg>